<svg xmlns="http://www.w3.org/2000/svg">
    <symbol id="icon-alert" viewBox="0 0 32 32">
      <path d="M26 2h-20c-2.209 0-4 1.791-4 4v20c0 2.209 1.791 4 4 4h20c2.211 0 4-1.791 4-4v-20c0-2.209-1.789-4-4-4zM13.975 8h3.972v8.801h-3.972v-8.801zM17.969 23.922h-3.972v-3.936h3.972v3.936z"></path>
    </symbol>
    <symbol id="icon-arrow-down" viewBox="0 0 32 32">
      <path d="M29.314 17.686l-1.414-1.414-10.899 10.899v-26.485h-2v26.485l-10.899-10.899-1.414 1.414 13.314 13.314z"></path>
    </symbol>
    <symbol id="icon-arrow-left" viewBox="0 0 32 32">
      <path d="M15.571 27.743l-10.899-10.899h26.485v-2h-26.485l10.899-10.899-1.414-1.414-13.314 13.314 13.314 13.314z"></path>
    </symbol>
    <symbol id="icon-arrow-right" viewBox="0 0 32 32">
      <path d="M31.157 15.843l-13.314-13.314-1.414 1.414 10.899 10.899h-26.485v2h26.485l-10.899 10.899 1.414 1.414z"></path>
    </symbol>
    <symbol id="icon-arrow-top" viewBox="0 0 32 32">
      <path d="M23.6 16.012l-7.6-7.775-7.6 7.775h5.6v7.988h4v-7.988z"></path>
    </symbol>
    <symbol id="icon-arrow-up" viewBox="0 0 32 32">
      <path d="M29.314 14l-13.314-13.314-13.314 13.314 1.414 1.414 10.899-10.899v26.485h2v-26.485l10.899 10.899z"></path>
    </symbol>
    <symbol id="icon-check-sign" viewBox="0 0 32 32">
      <path d="M25.015 6.086c-5.215-5.215-13.673-5.215-18.887 0s-5.215 13.674 0 18.887c5.215 5.218 13.673 5.218 18.887 0 5.217-5.214 5.217-13.669 0-18.887zM16.223 20.364l-2.677 2.677-6.652-6.652 2.679-2.676 3.942 3.942 8.048-8.048 2.677 2.678-8.048 8.048 0.031 0.030z"></path>
    </symbol>
    <symbol id="icon-check" viewBox="0 0 32 32">
      <path d="M4.728 15.59c-0.649 0.701-0.472 1.867 0.199 2.547l7.043 7.156c0.671 0.682 2.034 0.701 2.726 0.041l12.586-14.236c0.693-0.66 0.949-1.865 0.277-2.545l-2.035-1.883c-0.672-0.682-1.648-0.59-2.324 0.086l-9.28 10.777c-0.677 0.674-1.182 0.613-1.852-0.066l-3.333-3.436c-0.67-0.682-1.835-0.74-2.484-0.039l-1.522 1.598z"></path>
    </symbol>
    <symbol id="icon-circle" viewBox="0 0 32 32">
      <path d="M16 0c-8.836 0-16 7.164-16 16s7.164 16 16 16c8.836 0 16-7.164 16-16s-7.164-16-16-16z"></path>
    </symbol>
    <symbol id="icon-clock" viewBox="0 0 32 32">
      <path d="M16 4c-6.625 0-12 5.375-12 12s5.375 12 12 12 12-5.375 12-12c0-6.625-5.375-12-12-12zM15.994 24.413c-4.694 0-8.5-3.806-8.5-8.5s3.806-8.5 8.5-8.5 8.5 3.806 8.5 8.5c0 4.7-3.806 8.5-8.5 8.5z"></path>
      <path d="M16 10v6h-4v2h6v-8z"></path>
    </symbol>
    <symbol id="icon-close-bold" viewBox="0 0 32 32">
      <path d="M27.314 7.515l-2.83-2.828-8.484 8.484-8.484-8.484-2.83 2.828 8.485 8.485-8.485 8.485 2.83 2.828 8.484-8.484 8.484 8.484 2.83-2.828-8.485-8.485z"></path>
    </symbol>
    <symbol id="icon-close" viewBox="0 0 32 32">
      <path d="M17.533 16l11.502-11.502c0.423-0.423 0.423-1.11 0-1.533s-1.11-0.423-1.533 0l-11.502 11.5-11.505-11.504c-0.423-0.423-1.11-0.423-1.533 0s-0.423 1.11 0 1.533l11.502 11.502-11.502 11.502c-0.423 0.423-0.423 1.11 0 1.533s1.11 0.423 1.533 0l11.502-11.502 11.502 11.502c0.423 0.423 1.11 0.423 1.533 0s0.423-1.11 0-1.533l-11.5-11.499z"></path>
    </symbol>
    <symbol id="icon-cloudsave" viewBox="0 0 32 32">
      <path d="M11.716 10.53c0 0-1.935-1.861-4.561-0.341-2.351 1.451-1.936 4.107-1.936 4.107s-5.22 1.015-5.22 6.336c0.117 5.314 5.669 5.367 5.669 5.367h8.331v-6h-2.344l4.344-5 4.902 5h-2.902v6h8.090c0 0 5.168 0.006 5.895-5.049 0.344-5.529-4.996-6.619-4.996-6.619s0.609-8.185-6.891-9.117c-6.426-0.657-8.382 5.315-8.382 5.315z"></path>
    </symbol>
    <symbol id="icon-cog" viewBox="0 0 18 18">
        <path d="M9.61721778,0 C10.1215411,3.51446528e-16 10.5469421,0.375536443 10.6094957,0.875965265 L10.7789715,2.22805391 C11.4009075,2.39098917 11.9890833,2.63733304 12.5308252,2.95441182 L13.6064748,2.11735465 C14.0045634,1.80773012 14.5709117,1.84298969 14.9275222,2.19960009 L15.8003999,3.07247785 C16.1570103,3.42908825 16.1922699,3.99543655 15.8826453,4.39352524 L15.0461324,5.47010474 C15.3631014,6.01185049 15.6093411,6.60001454 15.7721813,7.22192664 L17.1240347,7.39050434 C17.6244636,7.45305794 18,7.87845895 18,8.38278222 L18,9.61721778 C18,10.1215411 17.6244636,10.5469421 17.1240347,10.6094957 L15.7721813,10.7780734 C15.6093411,11.3999855 15.3631014,11.9881495 15.0461324,12.5298953 L15.8826453,13.6064748 C16.1922699,14.0045634 16.1570103,14.5709117 15.8003999,14.9275222 L14.9275222,15.8003999 C14.5709117,16.1570103 14.0045634,16.1922699 13.6064748,15.8826453 L12.5308252,15.0455882 C11.9890833,15.362667 11.4009075,15.6090108 10.7789715,15.7719461 L10.6094957,17.1240347 C10.5469421,17.6244636 10.1215411,18 9.61721778,18 L8.38278222,18 C7.87845895,18 7.45305794,17.6244636 7.39050434,17.1240347 L7.22102854,15.7719461 C6.59909246,15.6090108 6.01091666,15.362667 5.46917484,15.0455882 L4.39352524,15.8826453 C3.99543655,16.1922699 3.42908825,16.1570103 3.07247785,15.8003999 L2.19960009,14.9275222 C1.84298969,14.5709117 1.80773012,14.0045634 2.11735465,13.6064748 L2.95386765,12.5298953 C2.6368986,11.9881495 2.39065886,11.3999855 2.22781869,10.7780734 L0.875965265,10.6094957 C0.375536443,10.5469421 0,10.1215411 -8.8817842e-16,9.61721778 L0,8.38278222 C4.4408921e-16,7.87845895 0.375536443,7.45305794 0.875965265,7.39050434 L2.22781869,7.22192664 C2.39065886,6.60001454 2.6368986,6.01185049 2.95386765,5.47010474 L2.11735465,4.39352524 C1.80773012,3.99543655 1.84298969,3.42908825 2.19960009,3.07247785 L3.07247785,2.19960009 C3.42908825,1.84298969 3.99543655,1.80773012 4.39352524,2.11735465 L5.46917484,2.95441182 C6.01091666,2.63733304 6.59909246,2.39098917 7.22102854,2.22805391 L7.39050434,0.875965265 C7.45305794,0.375536443 7.87845895,3.14687287e-16 8.38278222,0 L9.61721778,0 Z M9,12 C10.6568542,12 12,10.6568542 12,9 C12,7.34314575 10.6568542,6 9,6 C7.34314575,6 6,7.34314575 6,9 C6,10.6568542 7.34314575,12 9,12 Z" />
    </symbol>
    <symbol id="icon-collapse" viewBox="0 0 32 32">
      <path d="M14 18v13l-5-5-6 6-3-3 6-6-5-5zM32 3l-6 6 5 5h-13v-13l5 5 6-6z"></path>
    </symbol>
    <symbol id="icon-comment" viewBox="0 0 32 32">
      <path d="M16.142 2.436c8.711 0 15.772 5.698 15.772 12.726s-7.061 10.771-15.772 10.771c-2.863 0-11.944 5.694-11.944 5.694s4.518-5.668 0.237-9.892c-2.527-2.257-4.065-3.292-4.065-6.573 0-7.028 7.061-12.726 15.772-12.726z"></path>
    </symbol>
    <symbol id="icon-copy" viewBox="0 0 20 22">
      <path d="M13.0324 0H2.051C0.952859 0 0.0543823 0.9 0.0543823 2V15C0.0543823 15.55 0.503621 16 1.05269 16C1.60176 16 2.051 15.55 2.051 15V3C2.051 2.45 2.50024 2 3.04931 2H13.0324C13.5815 2 14.0307 1.55 14.0307 1C14.0307 0.45 13.5815 0 13.0324 0ZM13.6214 4.59L18.4432 9.42C18.8126 9.79 19.0222 10.3 19.0222 10.83V20C19.0222 21.1 18.1238 22 17.0256 22H6.03425C4.93611 22 4.04761 21.1 4.04761 20L4.0576 6C4.0576 4.9 4.94609 4 6.04423 4H12.2038C12.7329 4 13.242 4.21 13.6214 4.59ZM13.0324 11H17.5248L12.0341 5.5V10C12.0341 10.55 12.4833 11 13.0324 11Z"/>
    </symbol>
    <symbol id="icon-cry" viewBox="0 0 32 32">
      <path d="M13.832 12.465c0 1.168-0.947 2.116-2.116 2.116s-2.116-0.947-2.116-2.116c0-1.168 0.947-2.116 2.116-2.116s2.116 0.947 2.116 2.116z"></path>
      <path d="M22.4 12.465c0 1.168-0.947 2.116-2.116 2.116s-2.116-0.947-2.116-2.116c0-1.168 0.947-2.116 2.116-2.116s2.116 0.947 2.116 2.116z"></path>
      <path d="M16 17.023c-2.983 0-5.698 1.41-7.087 3.68-0.412 0.672-0.2 1.552 0.473 1.964s1.552 0.199 1.964-0.473c0.86-1.406 2.685-2.314 4.65-2.314s3.79 0.909 4.649 2.314c0.27 0.44 0.739 0.683 1.22 0.683 0.254 0 0.511-0.068 0.743-0.21 0.673-0.412 0.885-1.291 0.473-1.964-1.388-2.27-4.104-3.68-7.086-3.68z"></path>
      <path d="M15.999 2c-7.731 0-13.999 6.269-13.999 14s6.268 14 13.999 14c7.732 0 14.001-6.268 14.001-14s-6.268-14-14.001-14zM15.999 27.424c-6.308 0-11.423-5.115-11.423-11.424s5.115-11.424 11.423-11.424c4.521 0 8.427 2.625 10.279 6.434l-0.561 0.588c-0.497 0.521-2.978 3.209-2.978 4.973 0 1.978 1.61 3.588 3.589 3.588 0.107 0 0.212-0.006 0.317-0.017-1.659 4.26-5.799 7.281-10.646 7.281zM27.2 18.255c0 0.001-0.001 0.001-0.001 0.001-0.060 0.031-0.123 0.059-0.187 0.084-0.012 0.004-0.024 0.008-0.036 0.013-0.053 0.020-0.108 0.036-0.162 0.051-0.017 0.005-0.035 0.009-0.053 0.014-0.052 0.012-0.105 0.022-0.158 0.029-0.019 0.003-0.038 0.007-0.056 0.008-0.072 0.008-0.144 0.014-0.217 0.014-1.047 0-1.898-0.851-1.898-1.898 0-0.602 0.9-1.958 1.897-3.126 0.079 0.093 0.159 0.19 0.239 0.287 0.016 0.020 0.031 0.039 0.048 0.059 0.166 0.205 0.331 0.416 0.489 0.629 0.006 0.008 0.011 0.015 0.017 0.023 0.081 0.11 0.16 0.22 0.237 0.33l0 0c0.498 0.716 0.87 1.398 0.87 1.798-0 0.732-0.418 1.368-1.028 1.684z"></path>
    </symbol>
    <symbol id="icon-direction" viewBox="0 0 32 32">
      <path d="M18.286 20.571l9.143-8-9.143-8v5.714c-2.629 0-5.257 0.8-6.857 2.286v-8h-4.571v22.857h4.571v-5.714c0-3.771 3.086-6.629 6.857-6.629v5.486z"></path>
    </symbol>
    <symbol id="icon-down" viewBox="0 0 32 32">
      <path d="M15.954 17.629l-8.374-8.335-2.813 2.721 11.188 10.728 11.28-10.772-2.793-2.713z"></path>
    </symbol>
    <symbol id="icon-download" viewBox="0 0 32 32">
      <path d="M26 24h-20c-1.106 0-2 0.894-2 2s0.894 2 2 2h20c1.106 0 2-0.894 2-2s-0.894-2-2-2z"></path>
      <path d="M8.256 14.475l7.8 7.8 7.8-7.8c0.587-0.588 0.587-1.537 0-2.119-0.587-0.588-1.538-0.588-2.119 0v0l-3.675 3.681v-10.037c0-1.106-0.894-2-2-2s-2 0.894-2 2v10.037l-3.681-3.681c-0.588-0.588-1.537-0.588-2.119 0-0.588 0.581-0.588 1.531-0.006 2.119v0z"></path>
    </symbol>
    <symbol id="icon-expand" viewBox="0 0 32 32">
      <path d="M32 0v13l-5-5-6 6-3-3 6-6-5-5zM14 21l-6 6 5 5h-13v-13l5 5 6-6z"></path>
    </symbol>
    <symbol id="icon-eye" viewBox="0 0 32 32">
      <path d="M16.161 7.611c-6.473 0-10.608 5.378-13.544 8.317 0 0 6.353 8.634 13.365 8.634s13.366-8.634 13.366-8.634-6.715-8.317-13.188-8.317zM15.936 22.18c-3.35 0-6.068-2.718-6.068-6.068 0-3.351 2.718-6.064 6.068-6.064s6.064 2.714 6.064 6.064c0.003 3.35-2.71 6.068-6.064 6.068zM15.859 12.424c-2.001 0-3.626 1.625-3.626 3.626s1.622 3.626 3.626 3.626c2.004 0 3.626-1.625 3.626-3.626 0.001-2.001-1.622-3.626-3.626-3.626zM18.295 15.14c-0.263 0.268-0.828 0.147-1.248-0.277-0.424-0.42-0.548-0.981-0.277-1.252s0.829-0.147 1.255 0.272c0.417 0.424 0.546 0.987 0.27 1.257z"></path>
    </symbol>
    <symbol id="icon-football" viewBox="0 0 32 32">
      <path d="M12.262 2.181c-2.988-0.375-6.35-0.188-9.338 0.744-0.931 3.175-1.119 6.35-0.75 9.337l10.088-10.081zM23.844 7.969c-2.613-2.612-5.6-4.294-8.775-5.231l-12.144 12.512c0.931 3.175 2.612 6.163 5.231 8.775 2.613 2.613 5.6 4.294 8.775 5.231l12.144-12.506c-0.938-3.175-2.619-6.169-5.231-8.781zM19.919 21.6l-9.519-9.338 1.681-1.869 9.338 9.338-1.5 1.869zM29.819 19.738l-10.081 10.081c3.175 0.375 6.35 0.188 9.338-0.75 0.931-3.169 1.119-6.344 0.744-9.331z"></path>
    </symbol>
    <symbol id="icon-frown" viewBox="0 0 32 32">
      <path d="M16 32c-8.873 0-16-7.127-16-16s7.127-16 16-16c8.873 0 16 7.127 16 16s-7.127 16-16 16zM16 2.909c-7.273 0-13.091 5.818-13.091 13.091s5.818 13.091 13.091 13.091 13.091-5.818 13.091-13.091c0-7.273-5.818-13.091-13.091-13.091zM23.273 24c-0.582 0.582-1.455 0.582-2.036 0 0 0 0 0 0 0-2.909-2.764-7.418-2.764-10.327 0 0 0 0 0 0 0-0.582 0.582-1.455 0.582-2.036 0s-0.582-1.455 0-2.036c0 0 0 0 0 0v0c3.927-3.927 10.473-3.927 14.4 0v0 0c0.582 0.436 0.582 1.455 0 2.036zM19.636 16c-1.164 0-2.182-1.018-2.182-2.182s1.018-2.182 2.182-2.182c1.164 0 2.182 1.018 2.182 2.182s-1.018 2.182-2.182 2.182zM12.364 16c-1.164 0-2.182-1.018-2.182-2.182s1.018-2.182 2.182-2.182c1.164 0 2.182 1.018 2.182 2.182s-1.018 2.182-2.182 2.182z"></path>
    </symbol>
    <symbol id="icon-grid" viewBox="0 0 32 32">
      <path d="M0 10h6v6h-6v-6z"></path>
      <path d="M10 10h6v6h-6v-6z"></path>
      <path d="M20 10h6v6h-6v-6z"></path>
      <path d="M0 0h6v6h-6v-6z"></path>
      <path d="M10 0h6v6h-6v-6z"></path>
      <path d="M20 0h6v6h-6v-6z"></path>
      <path d="M0 20h6v6h-6v-6z"></path>
      <path d="M10 20h6v6h-6v-6z"></path>
      <path d="M20 20h6v6h-6v-6z"></path>
    </symbol>
    <symbol id="icon-heart" viewBox="0 0 32 32">
      <path d="M21.024 4.48q2.848 0 4.752 1.616t1.904 5.104q0 1.568-0.832 3.232t-1.664 2.528l-0.832 0.896-10.016 9.984-10.368-10.336t-0.8-0.96-1.024-1.472-0.8-1.808-0.352-2.064q0-3.488 1.888-5.104t4.736-1.616q2.88 0 6.112 3.424l0.608 0.672q0.128-0.16 0.368-0.432t0.992-0.992 1.504-1.248 1.808-0.976 2.016-0.448z"></path>
    </symbol>
    <symbol id="icon-home" viewBox="0 0 32 32">
      <path d="M23.993 20.009h4.379l-12.371-14.369-12.371 14.369h4.379v7.991h5.994v-7.991h3.996v7.991h5.994z"></path>
    </symbol>
    <symbol id="icon-horn" viewBox="0 0 32 32">
      <path fill-rule="evenodd" d="M21.41 8c.774 0 1.447.58 1.447 1.311v14.762c0 .732-.64 1.31-1.447 1.31-.192 0-.383-.034-.56-.1a1.47 1.47 0 0 1-.472-.285 1.288 1.288 0 0 1-.312-.426 1.168 1.168 0 0 1-.104-.5v-.212l-3.288-.702v2.927a.832.832 0 0 1-.106.408.947.947 0 0 1-.298.324c-.186.12-.41.184-.64.183-.1 0-.168 0-.27-.031l-8.554-1.95a1.106 1.106 0 0 1-.555-.346.911.911 0 0 1-.221-.57v-3.385l-3.3-.763a1.33 1.33 0 0 1-.522.531 1.557 1.557 0 0 1-1.792-.185 1.289 1.289 0 0 1-.312-.426 1.171 1.171 0 0 1-.104-.5v-5.397c0-.733.64-1.31 1.448-1.31.54 0 1.045.303 1.28.73l17.233-3.874v-.213c0-.733.64-1.311 1.447-1.311h.002zM8.12 21.174v2.166l6.466 1.493v-2.195L8.12 21.174zm16.874-.762c.07-.126.168-.238.288-.33.12-.092.26-.162.41-.204a1.315 1.315 0 0 1 .918.077l3.807 1.83c.271.145.473.375.566.645.094.27.072.56-.06.817a1.08 1.08 0 0 1-.429.425 1.263 1.263 0 0 1-.617.155 1.2 1.2 0 0 1-.571-.122l-3.808-1.83c-.607-.274-.808-.946-.504-1.463zm5.827-4.817c.314.005.613.12.833.32.22.199.344.467.346.746-.002.28-.126.548-.346.747-.22.2-.52.314-.833.32h-4.512a1.28 1.28 0 0 1-.834-.32c-.22-.199-.344-.467-.346-.747.001-.28.125-.548.346-.748.22-.2.52-.314.834-.32l4.512.002zm-1.515-5.947a1.337 1.337 0 0 1 .914-.07c.15.043.29.11.41.201.12.09.219.201.291.326.146.254.175.55.08.823a1.138 1.138 0 0 1-.583.641L26.61 13.4a1.3 1.3 0 0 1-.571.122 1.262 1.262 0 0 1-.617-.156 1.08 1.08 0 0 1-.428-.424.993.993 0 0 1-.08-.823 1.14 1.14 0 0 1 .585-.641l3.807-1.83z"/>
    </symbol>
    <symbol id="icon-info" viewBox="0 0 32 32">
      <path d="M16 0c-8.838 0-16 7.162-16 16s7.162 16 16 16 16-7.163 16-16-7.163-16-16-16zM18 24h-4v-10h4v10zM18 12h-4v-4h4v4z"></path>
    </symbol>
    <symbol id="icon-left-big" viewBox="0 0 32 32">
      <path d="M22.622 31.958l1.878-1.878-14.077-14.077 14.119-14.119-1.878-1.878-15.997 15.997 15.955 15.955z"></path>
    </symbol>
    <symbol id="icon-left-sign" viewBox="0 0 32 32">
      <path d="M16 0c8.836 0 16 7.164 16 16s-7.164 16-16 16c-8.836 0-16-7.164-16-16s7.164-16 16-16zM9.982 16.813l7.205 7.205 2.828-2.83-5.188-5.188 5.188-5.189-2.828-2.829-7.205 7.205-0.795 0.813 0.795 0.813z"></path>
    </symbol>
    <symbol id="icon-left" viewBox="0 0 32 32">
      <path d="M21.269 2.71l2.83 2.828-10.486 10.485 10.486 10.484-2.83 2.828-10.484-10.484-0.008 0.008-2.828-2.829z"></path>
    </symbol>
    <symbol id="icon-less-sign" viewBox="0 0 32 32">
      <path d="M16 0c-8.836 0-16 7.164-16 16s7.164 16 16 16 16-7.164 16-16-7.164-16-16-16zM24 18h-16v-4h16v4z"></path>
    </symbol>
    <symbol id="icon-location" viewBox="0 0 26 26">
      <path d="M25.7381 0.642883L13.7103 25.5L11.305 15.0762L0.880909 12.6704L25.7381 0.642883Z" />
    </symbol>
    <symbol id="icon-lock" viewBox="0 0 23 32">
      <path d="M23.273 32h-23.273v-17.455h2.909v-7.273c0-4.073 3.2-7.273 7.273-7.273h2.909c4.073 0 7.273 3.2 7.273 7.273v7.273h2.909v17.455zM17.455 7.273c0-2.327-2.036-4.364-4.364-4.364h-2.909c-2.327 0-4.364 2.036-4.364 4.364v7.273h11.636v-7.273z"></path>
    </symbol>
    <symbol id="icon-loupe" viewBox="0 0 32 32">
      <path d="M31.401 27.591l-5.835-5.82c3.547-5.257 2.992-12.448-1.673-17.097-5.301-5.283-13.899-5.283-19.206 0-5.301 5.283-5.301 13.847 0 19.132 4.629 4.612 11.765 5.193 17.035 1.759 0.003 0.003 0.003 0.006 0.006 0.011l5.846 5.828c0.705 0.703 1.851 0.703 2.551 0l1.274-1.269c0.707-0.706 0.707-1.844 0.001-2.543zM6.704 21.793c-4.191-4.174-4.191-10.942 0-15.117 4.188-4.174 10.98-4.174 15.169 0 4.192 4.176 4.192 10.943 0 15.117-4.188 4.174-10.982 4.174-15.169 0z"></path>
    </symbol>
    <symbol id="icon-marker" viewBox="0 0 32 32">
      <path d="M5.471 10.95c0 6.884 10.529 18.224 10.529 18.224s10.529-11.339 10.529-18.224c0-6.075-4.86-10.124-10.529-10.124s-10.529 4.050-10.529 10.124zM16 7.225c2.268 0 4.050 1.782 4.050 4.050s-1.782 4.050-4.050 4.050-4.050-1.782-4.050-4.050 1.782-4.050 4.050-4.050z"></path>
    </symbol>
    <symbol id="icon-menu" viewBox="0 0 32 32">
      <path d="M0 4h30v4h-30v-4z"></path>
      <path d="M0 14h30v4h-30v-4z"></path>
      <path d="M0 24h30v4h-30v-4z"></path>
    </symbol>
    <symbol id="icon-minus" viewBox="0 0 32 32">
      <path d="M26 18v-4h-20v4h20z"></path>
    </symbol>
    <symbol id="icon-more-sign" viewBox="0 0 32 32">
      <path d="M16 0c-8.836 0-16 7.164-16 16s7.164 16 16 16c8.836 0 16-7.164 16-16s-7.164-16-16-16zM24 18h-6v6h-4v-6h-6v-4h6v-6h4v6h6v4z"></path>
    </symbol>
    <symbol id="icon-more" viewBox="0 0 32 32">
      <path d="M5 12c1.657 0 3 1.345 3 3s-1.343 3-3 3c-1.657 0-3-1.343-3-3s1.343-3 3-3z"></path>
      <path d="M15.002 12c1.657 0 3 1.345 3 3s-1.343 3-3 3c-1.657 0-3-1.343-3-3s1.343-3 3-3z"></path>
      <path d="M25.004 12c1.657 0 3 1.345 3 3s-1.343 3-3 3c-1.657 0-3-1.343-3-3s1.343-3 3-3z"></path>
    </symbol>
    <symbol id="icon-move" viewBox="0 0 32 32">
      <path d="M32 16l-6-6v4h-7.966v-7.944l3.966-0.056-6-6-6 6 4.026 0.056v7.944h-8.016l-0.011-4-6 6 6 6v-4h8.026l-0.026 8h-4l6 6 6-6h-4l0.034-8h7.966v4z"></path>
    </symbol>
    <symbol id="icon-music-note" viewBox="0 0 32 32">
      <path d="M7.195 28.469c-2.479 0-4.486-1.441-4.674-3.352-0.203-2.096 1.564-4.016 4.281-4.279 0.207-0.020 0.416-0.029 0.621-0.029 0.631 0 1.709 0.094 2.284 0.277l0.292 0.094v-15.836l18-1.914 0.008 19.695c-0.006 0.035-0.010 0.098-0.006 0.148 0.098 1.004-0.314 2-1.162 2.807-0.863 0.818-2.068 1.342-3.395 1.471-0.207 0.020-0.416 0.031-0.623 0.031v0c-2.479 0-4.486-1.441-4.674-3.354-0.203-2.096 1.844-4.014 4.559-4.279 0.207-0.020 0.416-0.029 0.621-0.029 0.631 0 1.801 0.092 2.379 0.277l0.293 0.094v-11.491l-14 1.394v13.82c-0.004 0.035-0.010 0.098-0.005 0.146 0.098 1.004-0.126 2.002-0.974 2.809-0.863 0.82-1.877 1.342-3.203 1.471-0.207 0.020-0.417 0.029-0.623 0.029z"></path>
    </symbol>
    <symbol id="icon-news" viewBox="0 0 32 32">
      <path d="M29.333 3.5h-23.334c-0.92 0-1.667 0.747-1.667 1.667v20c0 0.46-0.373 0.833-0.833 0.833s-0.833-0.373-0.833-0.833v-18.334c-0.92 0-1.667 0.747-1.667 1.667v17.46c0 1.307 1.218 2.54 2.498 2.54h24.935c1.35 0 2.567-1.153 2.567-2.532v-20.802c0-0.92-0.747-1.667-1.667-1.667zM6.848 7.65c0-0.46 0.373-0.833 0.833-0.833h8.308c0.46 0 0.833 0.373 0.833 0.833v6.693c0 0.46-0.373 0.833-0.833 0.833h-8.308c-0.46 0-0.833-0.373-0.833-0.833v-6.693zM16 25.167h-8.333c-0.461 0-0.833-0.372-0.833-0.833s0.372-0.833 0.833-0.833h8.333c0.46 0 0.833 0.373 0.833 0.833s-0.373 0.833-0.833 0.833zM16 21.833h-8.333c-0.461 0-0.833-0.372-0.833-0.833s0.372-0.833 0.833-0.833h8.333c0.46 0 0.833 0.372 0.833 0.833s-0.373 0.833-0.833 0.833zM16 18.5h-8.333c-0.461 0-0.833-0.372-0.833-0.833s0.372-0.833 0.833-0.833h8.333c0.46 0 0.833 0.372 0.833 0.833s-0.373 0.833-0.833 0.833zM27.667 25.167h-7.5c-0.461 0-0.833-0.372-0.833-0.833s0.372-0.833 0.833-0.833h7.5c0.46 0 0.833 0.373 0.833 0.833s-0.373 0.833-0.833 0.833zM27.667 21.833h-7.5c-0.461 0-0.833-0.372-0.833-0.833s0.372-0.833 0.833-0.833h7.5c0.46 0 0.833 0.372 0.833 0.833s-0.373 0.833-0.833 0.833zM27.667 18.5h-7.5c-0.461 0-0.833-0.372-0.833-0.833s0.372-0.833 0.833-0.833h7.5c0.46 0 0.833 0.372 0.833 0.833s-0.373 0.833-0.833 0.833zM27.667 15.167h-7.505c-0.461 0-0.833-0.373-0.833-0.833s0.372-0.833 0.833-0.833h7.505c0.46 0 0.833 0.373 0.833 0.833s-0.373 0.833-0.833 0.833zM27.667 11.833h-7.505c-0.461 0-0.833-0.373-0.833-0.833s0.372-0.833 0.833-0.833h7.505c0.46 0 0.833 0.373 0.833 0.833s-0.373 0.833-0.833 0.833zM27.667 8.5h-7.505c-0.461 0-0.833-0.373-0.833-0.833s0.372-0.833 0.833-0.833h7.505c0.46 0 0.833 0.373 0.833 0.833s-0.373 0.833-0.833 0.833z"></path>
    </symbol>
    <symbol id="icon-next" viewBox="0 0 32 32">
      <path d="M24.812 16.966l-11.32-11.322-2.83 2.83 8.485 8.484-8.485 8.485 2.83 2.83 8.485-8.485 0.007 0.007z"></path>
    </symbol>
    <symbol id="icon-pause" viewBox="0 0 32 32">
      <path d="M19.727 6.062h6.211v19.876h-6.211v-19.876z"></path>
      <path d="M6.062 6.062h6.211v19.876h-6.211v-19.876z"></path>
    </symbol>
    <symbol id="icon-play" viewBox="0 0 32 32">
      <path d="M27.197 16l-19.221 10.258v-20.517l19.221 10.258z"></path>
    </symbol>
    <symbol id="icon-plus" viewBox="0 0 32 32">
      <path d="M26 14h-8v-8h-4v8h-8v4h8v8h4v-8h8v-4z"></path>
    </symbol>
    <symbol id="icon-prev" viewBox="0 0 32 32">
      <path d="M7.188 16.966l11.32-11.322 2.83 2.83-8.485 8.484 8.485 8.485-2.83 2.83-8.485-8.485-0.007 0.007z"></path>
    </symbol>
    <symbol id="icon-region" viewBox="0 0 35 32">
      <path d="M17.328 0.903c-8.392 0-15.195 6.759-15.195 15.097 0 8.334 6.803 15.097 15.195 15.097 8.395 0 15.195-6.763 15.195-15.097 0-8.338-6.801-15.097-15.195-15.097zM17.325 9.104c-0.837 0-1.354 1.606-1.354 3.64 0 2.039-5.136 2.015-5.136 2.981 0 0.963 1.227 1.625 3.023 1.625s4.835 2.872 4.835 5.552-2.525 3.492-3.476 4.781c-0.126 0.163-0.755 0.834-0.879 0.949-1.068 1.12-1.152-0.21-1.192-1.243 0-0.040-0.019-0.051-0.019-0.091 0-1.288 0-3.107 0-5.466s-1.594-3.942-2.789-4.375c-3.177-1.171-4.977-2.268-5.542-3.951 0.584-2.922 2.581-5.606 4.842-7.395 1.482-0.97 2.906-1.174 2.906-0.354 0 0.855-1.91 2.039-1.91 3.002s0.236 1.712 1.075 1.712c0.834 0 1.192-0.641 1.192-1.604 0-0.966-0.117-1.821 0.959-1.821 1.073 0 0.243 1.713 1.196 1.713 1.674 0 1.83-3.322 0.159-3.322-1.412 0-1.676-1.368-0.091-1.774 0.416-0.061 1.178-0.105 1.604-0.126 2.992 0.030 4.626 1.174 4.626 2.756-0.003 2.727-3.191 2.811-4.028 2.811zM26.887 22.819c-1.431 0-0.477-5.599-2.752-5.599-2.873 0-2.658-3.427-2.658-4.068s1.223-1.071 2.062-1.071 0.72-2.466 0.72-3.43c0-1.606 1.157-2.721 1.877-1.758 0.72 0.966 1.826 2.831 1.826 5.082 0 1.917 1.384 2.597 1.796 4.012-0.010 1.611-0.168 3.154-0.746 4.563-0.562 1.089-1.441 2.269-2.126 2.269z"></path>
    </symbol>
    <symbol id="icon-right-big" viewBox="0 0 32 32">
      <path d="M8.045 0.048l-1.878 1.878 14.077 14.077-14.119 14.119 1.878 1.878 15.997-15.997-15.955-15.955z"></path>
    </symbol>
    <symbol id="icon-right-sign" viewBox="0 0 32 32">
      <path d="M16 0c-8.836 0-16 7.164-16 16s7.164 16 16 16 16-7.164 16-16-7.164-16-16-16zM22.018 16.813l-7.205 7.205-2.828-2.83 5.188-5.188-5.188-5.189 2.828-2.829 7.205 7.205 0.795 0.813-0.795 0.813z"></path>
    </symbol>
    <symbol id="icon-right" viewBox="0 0 32 32">
      <path d="M24.099 16.030l-13.32-13.32-2.83 2.828 10.486 10.485-10.486 10.484 2.83 2.828 10.484-10.484 0.008 0.008z"></path>
    </symbol>
    <symbol id="icon-smile" viewBox="0 0 32 32">
      <path d="M16 32c-8.873 0-16-7.127-16-16s7.127-16 16-16c8.873 0 16 7.127 16 16s-7.127 16-16 16zM16 2.909c-7.273 0-13.091 5.818-13.091 13.091s5.818 13.091 13.091 13.091 13.091-5.818 13.091-13.091c0-7.273-5.818-13.091-13.091-13.091zM23.127 21.818v0c-3.927 3.927-10.473 3.927-14.4 0v0c0 0 0 0 0 0-0.582-0.582-0.582-1.455 0-2.036s1.455-0.582 2.036 0c0 0 0 0 0 0 2.909 2.764 7.418 2.764 10.327 0 0 0 0 0 0 0 0.582-0.582 1.455-0.582 2.036 0 0.582 0.436 0.582 1.455 0 2.036 0 0 0 0 0 0zM19.636 16c-1.164 0-2.182-1.018-2.182-2.182s1.018-2.182 2.182-2.182c1.164 0 2.182 1.018 2.182 2.182s-1.018 2.182-2.182 2.182zM12.364 16c-1.164 0-2.182-1.018-2.182-2.182s1.018-2.182 2.182-2.182 2.182 1.018 2.182 2.182c0 1.164-1.018 2.182-2.182 2.182z"></path>
    </symbol>
    <symbol id="icon-star" viewBox="0 0 32 32">
      <path d="M16 3.532l3.404 9.324 9.92 0.356-7.816 6.11 2.726 9.544-8.234-5.54-8.234 5.542 2.726-9.544-7.816-6.11 9.92-0.356 3.404-9.326z"></path>
    </symbol>
    <symbol id="icon-swap" viewBox="0 0 32 32">
      <path d="M22 16v-6h-12v-4h12v-6l10 8-10 8zM2 10h4v-4h-4v4zM10 30v-6h12v-4h-12v-6l-10 8 10 8zM30 20h-4v4h4v-4z"></path>
    </symbol>
    <symbol id="icon-t-down" viewBox="0 0 32 32">
      <path d="M6.931 10h18.144l-9.075 12.219-9.069-12.219z"></path>
    </symbol>
    <symbol id="icon-t-left" viewBox="0 0 32 32">
      <path d="M9.781 16l12.219-9.069v18.144l-12.219-9.075z"></path>
    </symbol>
    <symbol id="icon-t-right" viewBox="0 0 32 32">
      <path d="M10 25.069v-18.137l12.219 9.069-12.219 9.069z"></path>
    </symbol>
    <symbol id="icon-t-up" viewBox="0 0 32 32">
      <path d="M16 9.781l9.069 12.219h-18.137l9.069-12.219z"></path>
    </symbol>
    <symbol id="icon-up" viewBox="0 0 32 32">
      <path d="M15.954 14.37l-8.374 8.335-2.813-2.721 11.188-10.728 11.28 10.773-2.793 2.713z"></path>
    </symbol>
    <symbol id="icon-upload" viewBox="0 0 32 32">
      <path d="M28 6c0-1.104-0.895-2-2-2h-20c-1.106 0-2 0.896-2 2 0 1.106 0.894 2 2 2h20c1.105 0 2-0.894 2-2z"></path>
      <path d="M8.258 17.523c-0.586 0.586-0.586 1.535 0 2.121s1.535 0.586 2.121 0v0l3.684-3.682v10.037c0 1.105 0.895 2 2 2s2-0.895 2-2v-10.037l3.684 3.682c0.586 0.586 1.535 0.586 2.121 0s0.586-1.535 0-2.121v0l-7.805-7.805-7.805 7.805z"></path>
    </symbol>
    <symbol id="icon-uploaded" viewBox="0 0 32 32">
      <path d="M24.973 11.031l-8.941 7.5c0 0 0-4.6 0-4.5-2.754 0.109-7.289 1.843-7.289 7.203 0 3.25 2.304 5.668 5.37 6.297-4.924-0.668-8.732-4.551-8.732-9.66 0-7.84 7.562-9.678 10.651-9.84 0 0.047 0-4.5 0-4.5l8.941 7.5z"></path>
    </symbol>
    <symbol id="icon-user" viewBox="0 0 32 32">
      <path d="M15.202 4.020c0 0-0.843-0.048 1.734-0.048 3.936 0 4.404 4.539 4.404 4.539s0.048 4.776 0.048 5.898c0 1.124-1.875 1.877-1.545 1.547 0.048-0.048 0 3.295 0 3.295l8.157 5.691v3.058h-23.952l-0.048-3.010 8.394-5.787v-3.247c0 0-1.497-0.141-1.497-1.547 0-1.403 0-5.898 0-5.898s0.561-4.491 4.305-4.491z"></path>
    </symbol>
    <symbol id="icon-users" viewBox="0 0 32 32">
      <path d="M32 25.156v2.844h-8v-4.844l-2-1.156v-2c0 0-2-0.674-2-2s0-4 0-4 0.121-4 3.348-4c0 0 0.291 0 0.652 0h0.652c3.227 0 3.348 4 3.348 4s0 2.674 0 4-2 2-2 2v2.025l6 3.131zM14.063 20v-4c0 0 2-0.629 2-2 0-1.373 0-5.282 0-6s-0.336-4-4.895-4h-0.242c-4.559 0-4.863 3.282-4.863 4s0 4.627 0 6c0 1.371 2 2 2 2v4l-8.062 4-0.001 4h22v-4.037l-7.938-3.963z"></path>
    </symbol>
</svg>